<svg width="195" height="9" viewBox="0 0 195 9" fill="none" xmlns="http://www.w3.org/2000/svg">
<rect width="20" height="2" rx="1" fill="#4C2FFF"/>
<rect y="7" width="20" height="2" rx="1" fill="#4C2FFF"/>
<rect x="25" width="20" height="2" rx="1" fill="#4C2FFF"/>
<rect x="25" y="7" width="20" height="2" rx="1" fill="#4C2FFF"/>
<rect x="50" width="20" height="2" rx="1" fill="#4C2FFF"/>
<rect x="50" y="7" width="20" height="2" rx="1" fill="#4C2FFF"/>
<rect x="75" width="20" height="2" rx="1" fill="#4C2FFF"/>
<rect x="75" y="7" width="20" height="2" rx="1" fill="#4C2FFF"/>
<rect x="100" width="20" height="2" rx="1" fill="#4C2FFF"/>
<rect x="100" y="7" width="20" height="2" rx="1" fill="#4C2FFF"/>
<rect x="125" width="20" height="2" rx="1" fill="#4C2FFF"/>
<rect x="125" y="7" width="20" height="2" rx="1" fill="#4C2FFF"/>
<rect x="150" width="20" height="2" rx="1" fill="#4C2FFF"/>
<rect x="150" y="7" width="20" height="2" rx="1" fill="#4C2FFF"/>
<rect x="175" width="20" height="2" rx="1" fill="#4C2FFF"/>
<rect x="175" y="7" width="20" height="2" rx="1" fill="#4C2FFF"/>
</svg>
