<svg width="279" height="106" viewBox="0 0 279 106" fill="none" xmlns="http://www.w3.org/2000/svg">
<path d="M44.75 32.476L109.702 32.476L77.226 88.726L44.75 32.476Z" fill="#FF001F" fill-opacity="0.3"/>
<path d="M77.5 21L109.976 77.25H45.024L77.5 21Z" fill="#FF001F" fill-opacity="0.3"/>
<path d="M33.75 32.476L98.7019 32.476L66.226 88.726L33.75 32.476Z" fill="#FF001F" fill-opacity="0.3"/>
<path d="M66.5 21L98.976 77.25H34.024L66.5 21Z" fill="#FF001F" fill-opacity="0.3"/>
<path d="M18.75 32.476L83.7019 32.476L51.226 88.726L18.75 32.476Z" fill="#FF001F" fill-opacity="0.3"/>
<path d="M51.5 21L83.976 77.25H19.024L51.5 21Z" fill="#FF001F" fill-opacity="0.3"/>
<path d="M196.272 38.1127L195.257 36.3549L195.69 36.1049L195.616 35.976L195.765 35.976L195.765 35.476L197.795 35.476L197.795 35.976L199.824 35.976L199.824 35.476L201.854 35.476L201.854 35.976L203.884 35.976L203.884 35.476L205.914 35.476L205.914 35.976L207.943 35.976L207.943 35.476L209.973 35.476L209.973 35.976L212.003 35.976L212.003 35.476L214.033 35.476L214.033 35.976L216.062 35.976L216.062 35.476L218.092 35.476L218.092 35.976L220.122 35.976L220.122 35.476L222.152 35.476L222.152 35.976L224.181 35.976L224.181 35.476L226.211 35.476L226.211 35.976L228.241 35.976L228.241 35.476L230.271 35.476L230.271 35.976L232.3 35.976L232.3 35.476L234.33 35.476L234.33 35.976L236.36 35.976L236.36 35.476L238.39 35.476L238.39 35.976L240.419 35.976L240.419 35.476L242.449 35.476L242.449 35.976L244.479 35.976L244.479 35.476L246.509 35.476L246.509 35.976L248.538 35.976L248.538 35.476L250.568 35.476L250.568 35.976L252.598 35.976L252.598 35.476L254.628 35.476L254.628 35.976L256.657 35.976L256.657 35.476L258.687 35.476L258.687 35.976L258.836 35.976L258.761 36.1049L259.194 36.3549L258.18 38.1127L257.747 37.8627L256.732 39.6205L257.165 39.8705L256.15 41.6283L255.717 41.3783L254.702 43.1361L255.135 43.3861L254.12 45.1439L253.687 44.8939L252.672 46.6517L253.105 46.9017L252.09 48.6595L251.657 48.4095L250.642 50.1674L251.075 50.4174L250.061 52.1752L249.628 51.9252L248.613 53.683L249.046 53.933L248.031 55.6908L247.598 55.4408L246.583 57.1986L247.016 57.4486L246.001 59.2064L245.568 58.9564L244.553 60.7142L244.986 60.9642L243.971 62.722L243.538 62.472L242.523 64.2299L242.956 64.4799L241.942 66.2377L241.509 65.9877L240.494 67.7455L240.927 67.9955L239.912 69.7533L239.479 69.5033L238.464 71.2611L238.897 71.5111L237.882 73.2689L237.449 73.0189L236.434 74.7767L236.867 75.0267L235.852 76.7845L235.419 76.5345L234.404 78.2924L234.838 78.5424L233.823 80.3002L233.39 80.0502L232.375 81.808L232.808 82.058L231.793 83.8158L231.36 83.5658L230.345 85.3236L230.778 85.5736L229.763 87.3314L229.33 87.0814L228.315 88.8392L228.748 89.0892L227.733 90.847L227.3 90.597L227.226 90.726L227.152 90.597L226.719 90.847L225.704 89.0892L226.137 88.8392L225.122 87.0814L224.689 87.3314L223.674 85.5736L224.107 85.3236L223.092 83.5658L222.659 83.8158L221.644 82.058L222.077 81.808L221.062 80.0502L220.629 80.3002L219.614 78.5424L220.047 78.2924L219.033 76.5345L218.6 76.7845L217.585 75.0267L218.018 74.7767L217.003 73.0189L216.57 73.2689L215.555 71.5111L215.988 71.2611L214.973 69.5033L214.54 69.7533L213.525 67.9955L213.958 67.7455L212.943 65.9877L212.51 66.2377L211.495 64.4799L211.928 64.2299L210.914 62.472L210.481 62.722L209.466 60.9642L209.899 60.7142L208.884 58.9564L208.451 59.2064L207.436 57.4486L207.869 57.1986L206.854 55.4408L206.421 55.6908L205.406 53.933L205.839 53.683L204.824 51.9252L204.391 52.1752L203.376 50.4174L203.809 50.1674L202.795 48.4095L202.362 48.6595L201.347 46.9017L201.78 46.6517L200.765 44.8939L200.332 45.1439L199.317 43.3861L199.75 43.1361L198.735 41.3783L198.302 41.6283L197.287 39.8705L197.72 39.6205L196.705 37.8627L196.272 38.1127Z" stroke="#FF001F" stroke-dasharray="2 2"/>
<path d="M225.978 26.6367L226.993 24.8789L227.426 25.1289L227.5 25L227.574 25.1289L228.007 24.8789L229.022 26.6367L228.589 26.8867L229.604 28.6445L230.037 28.3945L231.052 30.1523L230.619 30.4023L231.634 32.1602L232.067 31.9102L233.082 33.668L232.649 33.918L233.664 35.6758L234.097 35.4258L235.112 37.1836L234.679 37.4336L235.693 39.1914L236.126 38.9414L237.141 40.6992L236.708 40.9492L237.723 42.707L238.156 42.457L239.171 44.2148L238.738 44.4648L239.753 46.2227L240.186 45.9727L241.201 47.7305L240.768 47.9805L241.783 49.7383L242.216 49.4883L243.231 51.2461L242.798 51.4961L243.812 53.2539L244.245 53.0039L245.26 54.7617L244.827 55.0117L245.842 56.7695L246.275 56.5195L247.29 58.2773L246.857 58.5273L247.872 60.2852L248.305 60.0352L249.32 61.793L248.887 62.043L249.902 63.8008L250.335 63.5508L251.35 65.3086L250.917 65.5586L251.931 67.3164L252.364 67.0664L253.379 68.8242L252.946 69.0742L253.961 70.832L254.394 70.582L255.409 72.3398L254.976 72.5898L255.991 74.3477L256.424 74.0977L257.439 75.8555L257.006 76.1055L258.021 77.8633L258.454 77.6133L259.469 79.3711L259.035 79.6211L259.11 79.75H258.961V80.25H256.931V79.75H254.902V80.25H252.872V79.75H250.842V80.25H248.812V79.75H246.783V80.25H244.753V79.75H242.723V80.25H240.693V79.75H238.664V80.25H236.634V79.75H234.604V80.25H232.574V79.75H230.545V80.25H228.515V79.75H226.485V80.25H224.455V79.75H222.426V80.25H220.396V79.75H218.366V80.25H216.336V79.75H214.307V80.25H212.277V79.75H210.247V80.25H208.217V79.75H206.188V80.25H204.158V79.75H202.128V80.25H200.098V79.75H198.069V80.25H196.039V79.75H195.89L195.964 79.6211L195.531 79.3711L196.546 77.6133L196.979 77.8633L197.994 76.1055L197.561 75.8555L198.576 74.0977L199.009 74.3477L200.024 72.5898L199.591 72.3398L200.606 70.582L201.039 70.832L202.054 69.0742L201.621 68.8242L202.636 67.0664L203.069 67.3164L204.083 65.5586L203.65 65.3086L204.665 63.5508L205.098 63.8008L206.113 62.043L205.68 61.793L206.695 60.0352L207.128 60.2852L208.143 58.5273L207.71 58.2773L208.725 56.5195L209.158 56.7695L210.173 55.0117L209.74 54.7617L210.755 53.0039L211.188 53.2539L212.202 51.4961L211.769 51.2461L212.784 49.4883L213.217 49.7383L214.232 47.9805L213.799 47.7305L214.814 45.9727L215.247 46.2227L216.262 44.4648L215.829 44.2148L216.844 42.457L217.277 42.707L218.292 40.9492L217.859 40.6992L218.874 38.9414L219.307 39.1914L220.321 37.4336L219.888 37.1836L220.903 35.4258L221.336 35.6758L222.351 33.918L221.918 33.668L222.933 31.9102L223.366 32.1602L224.381 30.4023L223.948 30.1523L224.963 28.3945L225.396 28.6445L226.411 26.8867L225.978 26.6367Z" stroke="#FF001F" stroke-dasharray="2 2"/>
<path d="M185.272 38.1127L184.257 36.3549L184.69 36.1049L184.616 35.976L184.765 35.976L184.765 35.476L186.795 35.476L186.795 35.976L188.824 35.976L188.824 35.476L190.854 35.476L190.854 35.976L192.884 35.976L192.884 35.476L194.914 35.476L194.914 35.976L196.943 35.976L196.943 35.476L198.973 35.476L198.973 35.976L201.003 35.976L201.003 35.476L203.033 35.476L203.033 35.976L205.062 35.976L205.062 35.476L207.092 35.476L207.092 35.976L209.122 35.976L209.122 35.476L211.152 35.476L211.152 35.976L213.181 35.976L213.181 35.476L215.211 35.476L215.211 35.976L217.241 35.976L217.241 35.476L219.271 35.476L219.271 35.976L221.3 35.976L221.3 35.476L223.33 35.476L223.33 35.976L225.36 35.976L225.36 35.476L227.39 35.476L227.39 35.976L229.419 35.976L229.419 35.476L231.449 35.476L231.449 35.976L233.479 35.976L233.479 35.476L235.509 35.476L235.509 35.976L237.538 35.976L237.538 35.476L239.568 35.476L239.568 35.976L241.598 35.976L241.598 35.476L243.628 35.476L243.628 35.976L245.657 35.976L245.657 35.476L247.687 35.476L247.687 35.976L247.836 35.976L247.761 36.1049L248.194 36.3549L247.18 38.1127L246.747 37.8627L245.732 39.6205L246.165 39.8705L245.15 41.6283L244.717 41.3783L243.702 43.1361L244.135 43.3861L243.12 45.1439L242.687 44.8939L241.672 46.6517L242.105 46.9017L241.09 48.6595L240.657 48.4095L239.642 50.1674L240.075 50.4174L239.061 52.1752L238.628 51.9252L237.613 53.683L238.046 53.933L237.031 55.6908L236.598 55.4408L235.583 57.1986L236.016 57.4486L235.001 59.2064L234.568 58.9564L233.553 60.7142L233.986 60.9642L232.971 62.722L232.538 62.472L231.523 64.2299L231.956 64.4799L230.942 66.2377L230.509 65.9877L229.494 67.7455L229.927 67.9955L228.912 69.7533L228.479 69.5033L227.464 71.2611L227.897 71.5111L226.882 73.2689L226.449 73.0189L225.434 74.7767L225.867 75.0267L224.852 76.7845L224.419 76.5345L223.404 78.2924L223.838 78.5424L222.823 80.3002L222.39 80.0502L221.375 81.808L221.808 82.058L220.793 83.8158L220.36 83.5658L219.345 85.3236L219.778 85.5736L218.763 87.3314L218.33 87.0814L217.315 88.8392L217.748 89.0892L216.733 90.847L216.3 90.597L216.226 90.726L216.152 90.597L215.719 90.847L214.704 89.0892L215.137 88.8392L214.122 87.0814L213.689 87.3314L212.674 85.5736L213.107 85.3236L212.092 83.5658L211.659 83.8158L210.644 82.058L211.077 81.808L210.062 80.0502L209.629 80.3002L208.614 78.5424L209.047 78.2924L208.033 76.5345L207.6 76.7845L206.585 75.0267L207.018 74.7767L206.003 73.0189L205.57 73.2689L204.555 71.5111L204.988 71.2611L203.973 69.5033L203.54 69.7533L202.525 67.9955L202.958 67.7455L201.943 65.9877L201.51 66.2377L200.495 64.4799L200.928 64.2299L199.914 62.472L199.481 62.722L198.466 60.9642L198.899 60.7142L197.884 58.9564L197.451 59.2064L196.436 57.4486L196.869 57.1986L195.854 55.4408L195.421 55.6908L194.406 53.933L194.839 53.683L193.824 51.9252L193.391 52.1752L192.376 50.4174L192.809 50.1674L191.795 48.4095L191.362 48.6595L190.347 46.9017L190.78 46.6517L189.765 44.8939L189.332 45.1439L188.317 43.3861L188.75 43.1361L187.735 41.3783L187.302 41.6283L186.287 39.8705L186.72 39.6205L185.705 37.8627L185.272 38.1127Z" stroke="#FF001F" stroke-dasharray="2 2"/>
<path d="M214.978 26.6367L215.993 24.8789L216.426 25.1289L216.5 25L216.574 25.1289L217.007 24.8789L218.022 26.6367L217.589 26.8867L218.604 28.6445L219.037 28.3945L220.052 30.1523L219.619 30.4023L220.634 32.1602L221.067 31.9102L222.082 33.668L221.649 33.918L222.664 35.6758L223.097 35.4258L224.112 37.1836L223.679 37.4336L224.693 39.1914L225.126 38.9414L226.141 40.6992L225.708 40.9492L226.723 42.707L227.156 42.457L228.171 44.2148L227.738 44.4648L228.753 46.2227L229.186 45.9727L230.201 47.7305L229.768 47.9805L230.783 49.7383L231.216 49.4883L232.231 51.2461L231.798 51.4961L232.812 53.2539L233.245 53.0039L234.26 54.7617L233.827 55.0117L234.842 56.7695L235.275 56.5195L236.29 58.2773L235.857 58.5273L236.872 60.2852L237.305 60.0352L238.32 61.793L237.887 62.043L238.902 63.8008L239.335 63.5508L240.35 65.3086L239.917 65.5586L240.931 67.3164L241.364 67.0664L242.379 68.8242L241.946 69.0742L242.961 70.832L243.394 70.582L244.409 72.3398L243.976 72.5898L244.991 74.3477L245.424 74.0977L246.439 75.8555L246.006 76.1055L247.021 77.8633L247.454 77.6133L248.469 79.3711L248.035 79.6211L248.11 79.75H247.961V80.25H245.931V79.75H243.902V80.25H241.872V79.75H239.842V80.25H237.812V79.75H235.783V80.25H233.753V79.75H231.723V80.25H229.693V79.75H227.664V80.25H225.634V79.75H223.604V80.25H221.574V79.75H219.545V80.25H217.515V79.75H215.485V80.25H213.455V79.75H211.426V80.25H209.396V79.75H207.366V80.25H205.336V79.75H203.307V80.25H201.277V79.75H199.247V80.25H197.217V79.75H195.188V80.25H193.158V79.75H191.128V80.25H189.098V79.75H187.069V80.25H185.039V79.75H184.89L184.964 79.6211L184.531 79.3711L185.546 77.6133L185.979 77.8633L186.994 76.1055L186.561 75.8555L187.576 74.0977L188.009 74.3477L189.024 72.5898L188.591 72.3398L189.606 70.582L190.039 70.832L191.054 69.0742L190.621 68.8242L191.636 67.0664L192.069 67.3164L193.083 65.5586L192.65 65.3086L193.665 63.5508L194.098 63.8008L195.113 62.043L194.68 61.793L195.695 60.0352L196.128 60.2852L197.143 58.5273L196.71 58.2773L197.725 56.5195L198.158 56.7695L199.173 55.0117L198.74 54.7617L199.755 53.0039L200.188 53.2539L201.202 51.4961L200.769 51.2461L201.784 49.4883L202.217 49.7383L203.232 47.9805L202.799 47.7305L203.814 45.9727L204.247 46.2227L205.262 44.4648L204.829 44.2148L205.844 42.457L206.277 42.707L207.292 40.9492L206.859 40.6992L207.874 38.9414L208.307 39.1914L209.321 37.4336L208.888 37.1836L209.903 35.4258L210.336 35.6758L211.351 33.918L210.918 33.668L211.933 31.9102L212.366 32.1602L213.381 30.4023L212.948 30.1523L213.963 28.3945L214.396 28.6445L215.411 26.8867L214.978 26.6367Z" stroke="#FF001F" stroke-dasharray="2 2"/>
<path d="M170.272 38.1127L169.257 36.3549L169.69 36.1049L169.616 35.976L169.765 35.976L169.765 35.476L171.795 35.476L171.795 35.976L173.824 35.976L173.824 35.476L175.854 35.476L175.854 35.976L177.884 35.976L177.884 35.476L179.914 35.476L179.914 35.976L181.943 35.976L181.943 35.476L183.973 35.476L183.973 35.976L186.003 35.976L186.003 35.476L188.033 35.476L188.033 35.976L190.062 35.976L190.062 35.476L192.092 35.476L192.092 35.976L194.122 35.976L194.122 35.476L196.152 35.476L196.152 35.976L198.181 35.976L198.181 35.476L200.211 35.476L200.211 35.976L202.241 35.976L202.241 35.476L204.271 35.476L204.271 35.976L206.3 35.976L206.3 35.476L208.33 35.476L208.33 35.976L210.36 35.976L210.36 35.476L212.39 35.476L212.39 35.976L214.419 35.976L214.419 35.476L216.449 35.476L216.449 35.976L218.479 35.976L218.479 35.476L220.509 35.476L220.509 35.976L222.538 35.976L222.538 35.476L224.568 35.476L224.568 35.976L226.598 35.976L226.598 35.476L228.628 35.476L228.628 35.976L230.657 35.976L230.657 35.476L232.687 35.476L232.687 35.976L232.836 35.976L232.761 36.1049L233.194 36.3549L232.18 38.1127L231.747 37.8627L230.732 39.6205L231.165 39.8705L230.15 41.6283L229.717 41.3783L228.702 43.1361L229.135 43.3861L228.12 45.1439L227.687 44.8939L226.672 46.6517L227.105 46.9017L226.09 48.6595L225.657 48.4095L224.642 50.1674L225.075 50.4174L224.061 52.1752L223.628 51.9252L222.613 53.683L223.046 53.933L222.031 55.6908L221.598 55.4408L220.583 57.1986L221.016 57.4486L220.001 59.2064L219.568 58.9564L218.553 60.7142L218.986 60.9642L217.971 62.722L217.538 62.472L216.523 64.2299L216.956 64.4799L215.942 66.2377L215.509 65.9877L214.494 67.7455L214.927 67.9955L213.912 69.7533L213.479 69.5033L212.464 71.2611L212.897 71.5111L211.882 73.2689L211.449 73.0189L210.434 74.7767L210.867 75.0267L209.852 76.7845L209.419 76.5345L208.404 78.2924L208.838 78.5424L207.823 80.3002L207.39 80.0502L206.375 81.808L206.808 82.058L205.793 83.8158L205.36 83.5658L204.345 85.3236L204.778 85.5736L203.763 87.3314L203.33 87.0814L202.315 88.8392L202.748 89.0892L201.733 90.847L201.3 90.597L201.226 90.726L201.152 90.597L200.719 90.847L199.704 89.0892L200.137 88.8392L199.122 87.0814L198.689 87.3314L197.674 85.5736L198.107 85.3236L197.092 83.5658L196.659 83.8158L195.644 82.058L196.077 81.808L195.062 80.0502L194.629 80.3002L193.614 78.5424L194.047 78.2924L193.033 76.5345L192.6 76.7845L191.585 75.0267L192.018 74.7767L191.003 73.0189L190.57 73.2689L189.555 71.5111L189.988 71.2611L188.973 69.5033L188.54 69.7533L187.525 67.9955L187.958 67.7455L186.943 65.9877L186.51 66.2377L185.495 64.4799L185.928 64.2299L184.914 62.472L184.481 62.722L183.466 60.9642L183.899 60.7142L182.884 58.9564L182.451 59.2064L181.436 57.4486L181.869 57.1986L180.854 55.4408L180.421 55.6908L179.406 53.933L179.839 53.683L178.824 51.9252L178.391 52.1752L177.376 50.4174L177.809 50.1674L176.795 48.4095L176.362 48.6595L175.347 46.9017L175.78 46.6517L174.765 44.8939L174.332 45.1439L173.317 43.3861L173.75 43.1361L172.735 41.3783L172.302 41.6283L171.287 39.8705L171.72 39.6205L170.705 37.8627L170.272 38.1127Z" stroke="#FF001F" stroke-dasharray="2 2"/>
<path d="M199.978 26.6367L200.993 24.8789L201.426 25.1289L201.5 25L201.574 25.1289L202.007 24.8789L203.022 26.6367L202.589 26.8867L203.604 28.6445L204.037 28.3945L205.052 30.1523L204.619 30.4023L205.634 32.1602L206.067 31.9102L207.082 33.668L206.649 33.918L207.664 35.6758L208.097 35.4258L209.112 37.1836L208.679 37.4336L209.693 39.1914L210.126 38.9414L211.141 40.6992L210.708 40.9492L211.723 42.707L212.156 42.457L213.171 44.2148L212.738 44.4648L213.753 46.2227L214.186 45.9727L215.201 47.7305L214.768 47.9805L215.783 49.7383L216.216 49.4883L217.231 51.2461L216.798 51.4961L217.812 53.2539L218.245 53.0039L219.26 54.7617L218.827 55.0117L219.842 56.7695L220.275 56.5195L221.29 58.2773L220.857 58.5273L221.872 60.2852L222.305 60.0352L223.32 61.793L222.887 62.043L223.902 63.8008L224.335 63.5508L225.35 65.3086L224.917 65.5586L225.931 67.3164L226.364 67.0664L227.379 68.8242L226.946 69.0742L227.961 70.832L228.394 70.582L229.409 72.3398L228.976 72.5898L229.991 74.3477L230.424 74.0977L231.439 75.8555L231.006 76.1055L232.021 77.8633L232.454 77.6133L233.469 79.3711L233.035 79.6211L233.11 79.75H232.961V80.25H230.931V79.75H228.902V80.25H226.872V79.75H224.842V80.25H222.812V79.75H220.783V80.25H218.753V79.75H216.723V80.25H214.693V79.75H212.664V80.25H210.634V79.75H208.604V80.25H206.574V79.75H204.545V80.25H202.515V79.75H200.485V80.25H198.455V79.75H196.426V80.25H194.396V79.75H192.366V80.25H190.336V79.75H188.307V80.25H186.277V79.75H184.247V80.25H182.217V79.75H180.188V80.25H178.158V79.75H176.128V80.25H174.098V79.75H172.069V80.25H170.039V79.75H169.89L169.964 79.6211L169.531 79.3711L170.546 77.6133L170.979 77.8633L171.994 76.1055L171.561 75.8555L172.576 74.0977L173.009 74.3477L174.024 72.5898L173.591 72.3398L174.606 70.582L175.039 70.832L176.054 69.0742L175.621 68.8242L176.636 67.0664L177.069 67.3164L178.083 65.5586L177.65 65.3086L178.665 63.5508L179.098 63.8008L180.113 62.043L179.68 61.793L180.695 60.0352L181.128 60.2852L182.143 58.5273L181.71 58.2773L182.725 56.5195L183.158 56.7695L184.173 55.0117L183.74 54.7617L184.755 53.0039L185.188 53.2539L186.202 51.4961L185.769 51.2461L186.784 49.4883L187.217 49.7383L188.232 47.9805L187.799 47.7305L188.814 45.9727L189.247 46.2227L190.262 44.4648L189.829 44.2148L190.844 42.457L191.277 42.707L192.292 40.9492L191.859 40.6992L192.874 38.9414L193.307 39.1914L194.321 37.4336L193.888 37.1836L194.903 35.4258L195.336 35.6758L196.351 33.918L195.918 33.668L196.933 31.9102L197.366 32.1602L198.381 30.4023L197.948 30.1523L198.963 28.3945L199.396 28.6445L200.411 26.8867L199.978 26.6367Z" stroke="#FF001F" stroke-dasharray="2 2"/>
<rect x="120" y="56.071" width="1" height="43" transform="rotate(-90 120 56.071)" fill="#FF001F"/>
<path d="M148 41.929L148.707 41.2218L163 55.071L162.5 56.071L148 41.929Z" fill="#FF001F"/>
<rect x="163.25" y="58.179" width="1" height="43" transform="rotate(90 163.25 58.179)" fill="#FF001F"/>
<path d="M135.25 72.321L134.543 73.0282L120.25 59.179L120.75 58.179L135.25 72.321Z" fill="#FF001F"/>
</svg>
