<svg width="15" height="13" viewBox="0 0 15 13" fill="none" xmlns="http://www.w3.org/2000/svg">
<rect width="15" height="13" fill="#FF3465" fill-opacity="0.3"/>
<path d="M12.1115 2.92838C11.5355 2.33277 10.7729 2.00723 9.95908 2.00723C9.14522 2.00723 8.38032 2.33518 7.80432 2.93079L7.5035 3.24186L7.19801 2.92597C6.62201 2.33036 5.85478 2 5.04092 2C4.22939 2 3.4645 2.32795 2.89083 2.92115C2.31483 3.51676 1.99768 4.30769 2.00001 5.14926C2.00001 5.99084 2.31949 6.77936 2.8955 7.37497L7.27496 11.9035C7.3356 11.9662 7.41721 12 7.4965 12C7.57579 12 7.65741 11.9687 7.71804 11.906L12.1068 7.38462C12.6828 6.789 13 5.99807 13 5.1565C13.0023 4.31493 12.6875 3.52399 12.1115 2.92838ZM11.6638 6.92404L7.4965 11.2163L3.33857 6.91681C2.8815 6.44418 2.62965 5.81722 2.62965 5.14926C2.62965 4.48131 2.87917 3.85435 3.33624 3.38413C3.79098 2.91391 4.39729 2.65348 5.04092 2.65348C5.68688 2.65348 6.29553 2.91391 6.7526 3.38654L7.27963 3.93152C7.40322 4.05932 7.60144 4.05932 7.72504 3.93152L8.2474 3.39137C8.70447 2.91874 9.31312 2.65831 9.95675 2.65831C10.6004 2.65831 11.2067 2.91874 11.6638 3.38896C12.1208 3.86159 12.3704 4.48855 12.3704 5.1565C12.3727 5.82445 12.1208 6.45141 11.6638 6.92404Z" fill="#FF3465"/>
</svg>
