<svg width="13" height="15" viewBox="0 0 13 15" fill="none" xmlns="http://www.w3.org/2000/svg">
<path d="M5.5 0.57735C6.1188 0.220085 6.8812 0.220085 7.5 0.57735L11.9952 3.17265C12.614 3.52992 12.9952 4.19017 12.9952 4.9047V10.0953C12.9952 10.8098 12.614 11.4701 11.9952 11.8274L7.5 14.4226C6.8812 14.7799 6.1188 14.7799 5.5 14.4226L1.00481 11.8274C0.386007 11.4701 0.00480938 10.8098 0.00480938 10.0953V4.9047C0.00480938 4.19017 0.386007 3.52992 1.00481 3.17265L5.5 0.57735Z" fill="url(#paint0_radial_137_687)"/>
<path d="M5.5 0.57735C6.1188 0.220085 6.8812 0.220085 7.5 0.57735L11.9952 3.17265C12.614 3.52992 12.9952 4.19017 12.9952 4.9047V10.0953C12.9952 10.8098 12.614 11.4701 11.9952 11.8274L7.5 14.4226C6.8812 14.7799 6.1188 14.7799 5.5 14.4226L1.00481 11.8274C0.386007 11.4701 0.00480938 10.8098 0.00480938 10.0953V4.9047C0.00480938 4.19017 0.386007 3.52992 1.00481 3.17265L5.5 0.57735Z" fill="url(#paint1_radial_137_687)"/>
<path d="M5.5 0.57735C6.1188 0.220085 6.8812 0.220085 7.5 0.57735L11.9952 3.17265C12.614 3.52992 12.9952 4.19017 12.9952 4.9047V10.0953C12.9952 10.8098 12.614 11.4701 11.9952 11.8274L7.5 14.4226C6.8812 14.7799 6.1188 14.7799 5.5 14.4226L1.00481 11.8274C0.386007 11.4701 0.00480938 10.8098 0.00480938 10.0953V4.9047C0.00480938 4.19017 0.386007 3.52992 1.00481 3.17265L5.5 0.57735Z" fill="url(#paint2_radial_137_687)"/>
<defs>
<radialGradient id="paint0_radial_137_687" cx="0" cy="0" r="1" gradientUnits="userSpaceOnUse" gradientTransform="translate(2.25 9.75) rotate(164.32) scale(14.8008)">
<stop stop-color="#FF0000"/>
<stop offset="0.533556" stop-color="#A30000" stop-opacity="0.478096"/>
</radialGradient>
<radialGradient id="paint1_radial_137_687" cx="0" cy="0" r="1" gradientUnits="userSpaceOnUse" gradientTransform="translate(6.5) rotate(90) scale(14.5)">
<stop stop-color="#00FF00"/>
<stop offset="1" stop-opacity="0"/>
</radialGradient>
<radialGradient id="paint2_radial_137_687" cx="0" cy="0" r="1" gradientUnits="userSpaceOnUse" gradientTransform="translate(13 11.25) rotate(-139.236) scale(9.57209)">
<stop stop-color="#0000FF"/>
<stop offset="1" stop-opacity="0"/>
</radialGradient>
</defs>
</svg>
